HIERARCHY
ROOT Hips
{
	OFFSET 0.00 0.00 0.00
	CHANNELS 6 Xposition Yposition Zposition Xrotation Yrotation Zrotation
	JOINT Spine
	{
		OFFSET 0.00000 7.06766 0.00000
		CHANNELS 3 Xrotation Yrotation Zrotation
		JOINT Head
		{
			OFFSET 0.00000 15.03989 0.00000
			CHANNELS 3 Xrotation Yrotation Zrotation
			End Site
			{
				OFFSET 0.00000 4.52755 0.00000
			}
		}
		JOINT LeftShoulder
		{
			OFFSET 0.00000 10.53037 0.00000
			CHANNELS 3 Xrotation Yrotation Zrotation
			JOINT LeftArm
			{
				OFFSET 7.02886 0.00000 0.00000
				CHANNELS 3 Xrotation Yrotation Zrotation
				JOINT LeftForeArm
				{
					OFFSET 10.79770 0.00000 0.00000
					CHANNELS 3 Yrotation Zrotation Xrotation
					JOINT LeftHand
					{
						OFFSET 7.90744 0.00000 0.00000
						CHANNELS 3 Xrotation Yrotation Zrotation
						JOINT LeftHandThumb1
						{
							OFFSET 0.00000 0.00000 0.00000
							CHANNELS 3 Xrotation Zrotation Yrotation
							End Site
							{
								OFFSET 0.00000 0.00000 3.93700
							}
						}
						End Site
						{
							OFFSET 3.93700 0.00000 0.00000
						}
					}
				}
			}
		}
		JOINT RightShoulder
		{
			OFFSET 0.00000 10.53037 0.00000
			CHANNELS 3 Xrotation Yrotation Zrotation
			JOINT RightArm
			{
				OFFSET -7.02886 0.00000 0.00000
				CHANNELS 3 Xrotation Yrotation Zrotation
				JOINT RightForeArm
				{
					OFFSET -10.79770 0.00000 0.00000
					CHANNELS 3 Yrotation Zrotation Xrotation
					JOINT RightHand
					{
						OFFSET -7.90744 0.00000 0.00000
						CHANNELS 3 Xrotation Yrotation Zrotation
						JOINT RightHandThumb1
						{
							OFFSET 0.00000 0.00000 0.00000
							CHANNELS 3 Xrotation Zrotation Yrotation
							End Site
							{
								OFFSET 0.00000 0.00000 3.93700
							}
						}
						End Site
						{
							OFFSET -3.93700 0.00000 0.00000
						}
					}
				}
			}
		}
	}
	JOINT LeftUpLeg
	{
		OFFSET 4.01300 0.00000 0.00000
		CHANNELS 3 Xrotation Yrotation Zrotation
		JOINT LeftLeg
		{
			OFFSET 0.00000 -16.89976 0.00000
			CHANNELS 3 Xrotation Yrotation Zrotation
			JOINT LeftFoot
			{
				OFFSET 0.00000 -17.38918 0.00000
				CHANNELS 3 Xrotation Yrotation Zrotation
				JOINT LeftToeBase
				{
					OFFSET 0.00000 -1.27456 4.75673
					CHANNELS 3 Xrotation Yrotation Zrotation
					End Site
					{
						OFFSET 0.00000 0.00000 2.95275
					}
				}
			}
		}
	}
	JOINT RightUpLeg
	{
		OFFSET -4.01300 0.00000 0.00000
		CHANNELS 3 Xrotation Yrotation Zrotation
		JOINT RightLeg
		{
			OFFSET 0.00000 -16.89976 0.00000
			CHANNELS 3 Xrotation Yrotation Zrotation
			JOINT RightFoot
			{
				OFFSET 0.00000 -17.38918 0.00000
				CHANNELS 3 Xrotation Yrotation Zrotation
				JOINT RightToeBase
				{
					OFFSET 0.00000 -1.27456 4.75673
					CHANNELS 3 Xrotation Yrotation Zrotation
					End Site
					{
						OFFSET 0.00000 0.00000 2.95275
					}
				}
			}
		}
	}
}
MOTION
Frames: 19
Frame Time: 0.008333
 19.8175 35.5088 -22.5684 171.0555 1.7951 179.4956 -20.1642 0.7074 0.2568 8.5241 0.6023 1.6550 -31.0692 3.6419 15.7941 1.7641 -4.8659 -7.7074 2.3850 0.0000 8.8995 0.7627 6.2010 -7.0257 33.1476 -0.0000 26.2537 7.0785 -13.5297 -9.2791 -39.6022 -1.8456 11.4241 3.9560 -0.0000 32.6268 1.0305 -6.2065 9.4466 32.8623 0.0000 -24.3270 0.9455 10.2768 -0.4563 -6.7121 0.0000 -0.0000 -19.0533 29.9588 4.5633 25.7801 0.0000 -0.0000 -0.8184 -3.8908 -0.2200 -2.7840 -0.0000 -0.0000 -19.1665 -28.5435 -2.5365 24.0490 -0.0000 0.0000
 19.8188 35.5086 -22.5661 171.0481 1.7892 179.4900 -20.1674 0.7069 0.2715 8.5293 0.5962 1.6407 -31.0696 3.6453 15.7926 1.7583 -4.8537 -7.7004 2.3650 0.0000 8.9121 0.7624 6.2070 -7.0163 33.1476 -0.0000 26.2537 7.0667 -13.5218 -9.2964 -39.5809 -1.8564 11.4038 3.9626 -0.0000 32.5444 1.0320 -6.2125 9.4509 32.8623 0.0000 -24.3270 0.9396 10.2603 -0.4474 -6.7258 0.0000 0.0000 -19.0754 29.9616 4.5884 25.8407 0.0000 -0.0000 -0.8251 -3.8836 -0.2121 -2.7871 0.0000 0.0000 -19.2193 -28.5479 -2.6483 24.2582 -0.0000 -0.0000
 19.8196 35.5086 -22.5645 171.0473 1.7851 179.4916 -20.1603 0.7088 0.2751 8.5282 0.5705 1.6284 -31.0551 3.6701 15.8005 1.7322 -4.8658 -7.7023 2.3576 0.0000 8.9106 0.7618 6.2202 -6.9962 33.1476 -0.0000 26.2537 7.0817 -13.5308 -9.2987 -39.6114 -1.8572 11.4019 3.9671 -0.0000 32.5483 1.0298 -6.2171 9.4245 32.8623 0.0000 -24.3270 0.9343 10.2759 -0.4495 -6.7256 0.0000 0.0000 -19.0647 29.9619 4.5721 25.8874 0.0000 -0.0000 -0.8255 -3.8918 -0.2131 -2.7956 -0.0000 -0.0000 -19.1067 -28.5629 -2.4402 23.7820 -0.0000 0.0000
 19.8206 35.5088 -22.5623 171.0443 1.7759 179.4946 -20.1577 0.7057 0.2746 8.5313 0.5410 1.6166 -31.0410 3.6847 15.8069 1.7031 -4.8653 -7.7031 2.3542 0.0000 8.8949 0.7626 6.2154 -7.0087 33.1476 -0.0000 26.2537 7.1053 -13.5690 -9.3088 -40.0754 -1.8777 11.4558 3.8525 -0.0000 33.0548 1.0058 -6.1859 9.2535 32.8623 0.0000 -24.3270 0.9176 10.2920 -0.4502 -6.7076 -0.0000 0.0000 -19.0593 29.9334 4.5701 25.8391 0.0000 -0.0000 -0.8228 -3.8949 -0.2154 -2.8052 -0.0000 0.0000 -19.1151 -28.5898 -2.4692 23.8476 0.0000 -0.0000
 19.8223 35.5087 -22.5602 171.0416 1.7700 179.4941 -20.1533 0.7112 0.2778 8.5290 0.5310 1.6136 -31.0550 3.6823 15.8104 1.7197 -4.8617 -7.6983 2.3574 0.0000 8.8709 0.7637 6.2096 -7.0253 33.1476 -0.0000 26.2537 7.1295 -13.5899 -9.3057 -40.1532 -1.8758 11.4627 3.8414 -0.0000 33.0933 1.0021 -6.1784 9.2309 32.8623 0.0000 -24.3270 0.9112 10.2897 -0.4471 -6.7120 0.0000 0.0000 -19.0517 29.9379 4.5740 25.8372 0.0000 -0.0000 -0.8215 -3.8864 -0.2128 -2.8202 0.0000 -0.0000 -19.1442 -28.5552 -2.5398 24.0406 -0.0000 0.0000
 19.8233 35.5085 -22.5581 171.0426 1.7674 179.5012 -20.1475 0.7227 0.2735 8.5411 0.5160 1.6092 -31.0169 3.6937 15.8133 1.6729 -4.8625 -7.7017 2.3719 0.0000 8.8773 0.7652 6.2064 -7.0430 33.1476 -0.0000 26.2537 7.0997 -13.5640 -9.3036 -39.6390 -1.8475 11.4241 3.9665 -0.0000 32.5885 1.0309 -6.2529 9.3814 32.8623 0.0000 -24.3270 0.9115 10.2939 -0.4535 -6.7144 -0.0000 0.0000 -19.0362 29.9247 4.5622 25.7963 0.0000 0.0000 -0.8154 -3.8662 -0.2173 -2.8354 -0.0000 0.0000 -19.2104 -28.5496 -2.6948 24.2501 -0.0000 0.0000
 19.8245 35.5086 -22.5559 171.0387 1.7600 179.5064 -20.1469 0.7277 0.2703 8.5386 0.4817 1.6002 -31.0023 3.6990 15.8121 1.6655 -4.8621 -7.6961 2.3834 0.0000 8.8713 0.7674 6.2151 -7.0527 33.1476 -0.0000 26.2537 7.0854 -13.5566 -9.2990 -39.6087 -1.8575 11.3960 3.9861 -0.0000 32.5316 1.0265 -6.2287 9.3772 32.8623 0.0000 -24.3270 0.9037 10.2868 -0.4542 -6.7138 -0.0000 -0.0000 -19.0353 29.9215 4.5520 25.8437 -0.0000 0.0000 -0.8154 -3.8835 -0.2214 -2.8468 -0.0000 -0.0000 -19.2156 -28.5681 -2.7445 24.2392 -0.0000 0.0000
 19.8268 35.5090 -22.5536 171.0358 1.7531 179.5009 -20.1470 0.7245 0.2768 8.5509 0.4729 1.5903 -30.9988 3.7052 15.8132 1.6682 -4.8648 -7.6891 2.4107 0.0000 8.8773 0.7667 6.2033 -7.0602 33.1476 -0.0000 26.2537 7.0883 -13.5521 -9.2949 -39.6394 -1.8673 11.3847 3.9825 -0.0000 32.5208 1.0253 -6.2059 9.4006 32.8623 0.0000 -24.3270 0.8954 10.2768 -0.4447 -6.7146 -0.0000 0.0000 -19.0335 29.9265 4.5461 25.8603 0.0000 -0.0000 -0.8120 -3.9004 -0.2125 -2.8615 -0.0000 -0.0000 -19.0879 -28.5671 -2.5055 23.8553 0.0000 -0.0000
 19.8279 35.5089 -22.5508 171.0311 1.7469 179.5090 -20.1465 0.7202 0.2703 8.5531 0.4716 1.5851 -31.0194 3.7078 15.8244 1.7017 -4.8620 -7.6892 2.4301 0.0000 8.8723 0.7684 6.2064 -7.0718 33.1476 -0.0000 26.2537 7.0825 -13.5518 -9.2967 -39.6296 -1.8614 11.3972 3.9807 -0.0000 32.5236 1.0250 -6.2095 9.3921 32.8623 0.0000 -24.3270 0.8895 10.2767 -0.4528 -6.7221 0.0000 -0.0000 -19.0220 29.9265 4.5585 25.8775 -0.0000 0.0000 -0.8145 -3.9100 -0.2171 -2.8761 0.0000 -0.0000 -19.1630 -28.5346 -2.6348 24.1417 -0.0000 -0.0000
 19.8293 35.5086 -22.5477 171.0186 1.7435 179.5122 -20.1604 0.7253 0.2686 8.5683 0.4731 1.5870 -31.0128 3.7009 15.8295 1.7110 -4.8454 -7.6892 2.4369 0.0000 8.8860 0.7707 6.2157 -7.0821 33.1476 -0.0000 26.2537 7.0904 -13.5573 -9.3073 -39.6856 -1.8810 11.4221 3.9792 -0.0000 32.6132 1.0341 -6.2258 9.4503 32.8623 0.0000 -24.3270 0.8691 10.2766 -0.4514 -6.7168 -0.0000 -0.0000 -19.0132 29.9144 4.5611 25.8542 -0.0000 0.0000 -0.8206 -3.8824 -0.2194 -2.8949 0.0000 0.0000 -19.1435 -28.5868 -2.6254 24.0671 -0.0000 0.0000
 19.8311 35.5089 -22.5453 171.0136 1.7408 179.5109 -20.1652 0.7376 0.2736 8.5764 0.4666 1.5823 -31.0071 3.7012 15.8286 1.6953 -4.8386 -7.6915 2.4420 0.0000 8.9040 0.7715 6.1970 -7.1110 33.1476 -0.0000 26.2537 7.0723 -13.5551 -9.2989 -39.6730 -1.8855 11.3986 3.9800 -0.0000 32.5704 1.0325 -6.2287 9.4310 32.8623 0.0000 -24.3270 0.8616 10.2857 -0.4486 -6.7233 -0.0000 0.0000 -18.9954 29.9061 4.5583 25.8364 0.0000 -0.0000 -0.8256 -3.8915 -0.2142 -2.9052 -0.0000 -0.0000 -19.0835 -28.5588 -2.5565 23.9019 0.0000 -0.0000
 19.8331 35.5093 -22.5427 171.0108 1.7377 179.5079 -20.1690 0.7408 0.2803 8.5902 0.4683 1.5764 -31.0094 3.6946 15.8354 1.6990 -4.8182 -7.7017 2.4456 0.0000 8.8966 0.7698 6.1871 -7.1062 33.1476 -0.0000 26.2537 7.0695 -13.5568 -9.2951 -39.6962 -1.8806 11.3994 3.9528 -0.0000 32.6069 1.0318 -6.2167 9.4431 32.8623 0.0000 -24.3270 0.8572 10.2813 -0.4430 -6.7300 0.0000 -0.0000 -18.9905 29.9115 4.5473 25.8164 0.0000 0.0000 -0.8345 -3.9095 -0.2075 -2.8969 0.0000 0.0000 -19.1411 -28.5258 -2.6838 24.1248 -0.0000 -0.0000
 19.8349 35.5093 -22.5392 171.0026 1.7361 179.5071 -20.1756 0.7479 0.2868 8.5926 0.4768 1.5681 -31.0152 3.6907 15.8315 1.6764 -4.7997 -7.6976 2.4590 0.0000 8.8611 0.7702 6.1782 -7.1202 33.1476 -0.0000 26.2537 7.0279 -13.5474 -9.3037 -39.6659 -1.8882 11.3978 3.9431 -0.0000 32.6169 1.0302 -6.2035 9.4482 32.8623 0.0000 -24.3270 0.8382 10.2764 -0.4379 -6.7223 0.0000 0.0000 -18.9992 29.9229 4.5505 25.8568 0.0000 0.0000 -0.8493 -3.9139 -0.2037 -2.8972 0.0000 -0.0000 -19.1488 -28.5320 -2.6702 24.1548 -0.0000 0.0000
 19.8365 35.5093 -22.5359 170.9922 1.7343 179.5065 -20.1852 0.7427 0.2902 8.5969 0.5009 1.5710 -31.0166 3.7008 15.8507 1.6401 -4.7776 -7.7137 2.4584 0.0000 8.8434 0.7717 6.1855 -7.1253 33.1476 -0.0000 26.2537 7.0759 -13.5858 -9.3073 -40.2309 -1.9154 11.4650 3.8088 -0.0000 33.1595 1.0016 -6.1354 9.2903 32.8623 0.0000 -24.3270 0.8226 10.2651 -0.4358 -6.7256 -0.0000 0.0000 -19.0128 29.9352 4.5682 25.9155 0.0000 -0.0000 -0.8687 -3.9326 -0.1988 -2.8907 -0.0000 -0.0000 -19.1288 -28.5135 -2.6262 24.0484 0.0000 -0.0000
 19.8382 35.5099 -22.5327 170.9926 1.7301 179.5009 -20.1862 0.7551 0.3067 8.6115 0.5151 1.5594 -31.0315 3.6757 15.8358 1.6349 -4.7354 -7.7137 2.4503 0.0000 8.8177 0.7740 6.2136 -7.1151 33.1476 -0.0000 26.2537 7.0882 -13.5904 -9.3098 -40.2877 -1.9365 11.4661 3.7914 -0.0000 33.1933 1.0094 -6.1733 9.3049 32.8623 0.0000 -24.3270 0.8155 10.2749 -0.4284 -6.7280 -0.0000 0.0000 -18.9747 29.9248 4.5714 25.8246 0.0000 -0.0000 -0.8674 -3.9238 -0.1908 -2.8993 0.0000 -0.0000 -19.1048 -28.5460 -2.5864 24.0514 0.0000 -0.0000
 19.8402 35.5103 -22.5294 170.9925 1.7328 179.5015 -20.1816 0.7648 0.3071 8.6079 0.5353 1.5685 -31.0235 3.6797 15.8360 1.5912 -4.7187 -7.7095 2.4664 0.0000 8.8080 0.7734 6.1989 -7.1262 33.1476 -0.0000 26.2537 7.0000 -13.5443 -9.3450 -40.1925 -2.0066 11.4679 3.8145 -0.0000 33.1979 1.0046 -6.1548 9.2890 32.8623 0.0000 -24.3270 0.8054 10.2846 -0.4249 -6.7197 0.0000 0.0000 -18.9982 29.9234 4.5670 25.9360 0.0000 -0.0000 -0.8753 -3.9211 -0.1881 -2.8951 -0.0000 -0.0000 -19.1079 -28.5264 -2.6210 24.0653 0.0000 -0.0000
 19.8429 35.5108 -22.5267 170.9965 1.7275 179.4972 -20.1807 0.7668 0.3137 8.6196 0.5448 1.5612 -31.0370 3.6554 15.8373 1.5999 -4.6756 -7.7155 2.4631 0.0000 8.8115 0.7727 6.1914 -7.1283 33.1476 -0.0000 26.2537 7.0003 -13.5283 -9.3448 -40.1897 -2.0261 11.4648 3.8011 -0.0000 33.1999 0.9989 -6.1449 9.2519 32.8623 0.0000 -24.3270 0.8020 10.2737 -0.4160 -6.7168 -0.0000 -0.0000 -18.9894 29.9283 4.5721 25.8633 -0.0000 -0.0000 -0.8700 -3.9151 -0.1822 -2.9000 0.0000 0.0000 -19.1256 -28.5324 -2.6548 24.1482 0.0000 -0.0000
 19.8455 35.5109 -22.5239 170.9972 1.7244 179.4994 -20.1827 0.7817 0.3063 8.6309 0.5547 1.5779 -31.0319 3.6399 15.8460 1.5865 -4.6656 -7.7231 2.4898 0.0000 8.8264 0.7670 6.1709 -7.0989 33.1476 -0.0000 26.2537 7.0089 -13.5308 -9.3473 -40.1798 -2.0440 11.4842 3.7822 -0.0000 33.1984 0.9933 -6.1297 9.2224 32.8623 0.0000 -24.3270 0.7956 10.2759 -0.4139 -6.7152 -0.0000 -0.0000 -18.9938 29.9268 4.5732 25.9124 -0.0000 0.0000 -0.8763 -3.9146 -0.1804 -2.8926 -0.0000 0.0000 -19.1619 -28.5096 -2.7307 24.2791 0.0000 -0.0000
 19.8468 35.5116 -22.5203 170.9979 1.7246 179.5037 -20.1858 0.7971 0.3065 8.6482 0.5558 1.5776 -31.0231 3.6202 15.8395 1.5762 -4.6329 -7.7228 2.4905 0.0000 8.8722 0.7768 6.1671 -7.1936 33.1476 -0.0000 26.2537 6.9861 -13.4819 -9.3255 -39.6485 -2.0143 11.4172 3.8736 -0.0000 32.6704 1.0087 -6.1647 9.3115 32.8623 0.0000 -24.3270 0.7845 10.2371 -0.4102 -6.7024 -0.0000 -0.0000 -18.9866 29.9592 4.5662 25.8921 0.0000 -0.0000 -0.8776 -3.8959 -0.1835 -2.8955 -0.0000 -0.0000 -19.1316 -28.5340 -2.7031 24.1001 0.0000 -0.0000
